<svg width="48" height="48" viewBox="0 0 48 48" fill="none" xmlns="http://www.w3.org/2000/svg">
<path d="M0.000366211 24C0.000366211 35.577 8.19748 45.2395 19.1044 47.5002L25.9684 36.864L27.5524 28.32H24.8644L13.6804 33.552L11.6164 31.824L14.6404 23.04L7.53637 24.912L4.12837 24L5.71237 16.512L8.92837 11.904L12.2404 10.752L16.3204 13.776V1.25507C6.83205 4.45771 0.000366211 13.431 0.000366211 24Z" fill="#C1CE88"/>
<path d="M48.0011 24C48.0011 10.7452 37.2559 0 24.0011 0C21.4573 0 19.0059 0.395772 16.7051 1.1291L16.9931 14.16L16.0811 14.496L12.3851 11.28L8.2571 13.248L5.8571 17.856L4.6571 23.616L7.2971 24.48L14.9291 21.744L15.6971 23.04L12.8171 31.44L13.9211 32.832L27.2171 26.4L31.2971 23.04L34.9931 18.96L36.8651 21.744L35.8091 31.44L43.2011 26.4L41.9531 37.488L41.5983 40.32C45.5717 36.0376 48.0011 30.3025 48.0011 24Z" fill="#E6B4BC"/>
<path d="M24.0015 48C30.8592 48 37.045 45.1239 41.4187 40.512L43.2975 26.304L35.8575 31.44L36.7215 21.264L34.9455 18.96L29.3775 26.304L26.7855 36.576L22.8015 45.648L21.8895 47.9084C22.5854 47.969 23.2899 48 24.0015 48Z" fill="#DABBE3"/>
<mask id="mask0_352_2062" style="mask-type:alpha" maskUnits="userSpaceOnUse" x="0" y="0" width="49" height="48">
<circle cx="24.0005" cy="24" r="24" fill="#D9D9D9"/>
</mask>
<g mask="url(#mask0_352_2062)">
<path d="M16.6203 0C16.839 0.56846 17.0593 1.12765 17.1839 1.70742C17.3216 2.34846 17.4202 3.00609 17.4506 3.66045C17.5421 5.63751 17.5754 7.61725 17.6641 9.59448C17.7336 11.1446 17.8684 12.6919 17.9376 14.242C17.9582 14.702 17.9394 15.2284 17.4143 15.4488C17.1924 15.542 16.8765 15.5557 16.6557 15.4703C16.3803 15.3638 16.1444 15.1337 15.9169 14.9288C15.18 14.2653 14.4623 13.5805 13.7235 12.9192C12.511 11.8339 11.1353 12.0624 9.93481 12.9446C8.8511 13.741 8.06851 14.7983 7.42713 15.9613C6.5252 17.5968 5.90499 19.3296 5.59379 21.1811C5.48241 21.8438 5.32762 22.4849 5.54584 23.1401C5.73863 23.7189 6.06933 23.9329 6.67572 23.9585C7.5785 23.9966 8.42472 23.7643 9.21729 23.3729C10.3695 22.8038 11.4871 22.1648 12.6362 21.5891C13.5685 21.122 14.5186 20.7205 15.6149 20.8103C16.3642 20.8717 16.8137 21.1935 16.7493 21.9539C16.6787 22.7862 16.5467 23.6388 16.2722 24.4233C15.553 26.4794 14.73 28.4991 13.9779 30.5441C13.8452 30.9049 13.8552 31.3182 13.777 31.8622C14.1871 31.6971 14.4459 31.6178 14.6814 31.4941C16.353 30.6167 17.9855 29.6562 19.6966 28.8651C21.9234 27.8355 24.2069 26.9272 26.4772 25.9938C26.8838 25.8266 27.1514 25.6886 27.1889 25.1722C27.2935 23.734 27.5131 22.3037 27.6051 20.8651C27.6539 20.1012 27.4518 19.3484 27.0179 18.6867C26.691 18.1881 26.2158 17.9469 25.6327 17.8892C25.407 17.8668 25.1717 17.8606 24.9612 17.788C24.7633 17.7198 24.4633 17.5962 24.4392 17.4569C24.4012 17.2374 24.487 16.9128 24.6441 16.76C24.9897 16.4239 25.3792 16.0964 25.8109 15.8928C26.777 15.4372 27.7639 15.0133 28.7735 14.6672C29.3844 14.4578 29.9109 14.7784 30.1186 15.39C30.2524 15.7839 30.3609 16.2156 30.3467 16.6258C30.2801 18.5567 30.167 20.486 30.0713 22.416C30.0669 22.505 30.0708 22.5945 30.0708 22.672C30.8273 21.6208 31.5331 20.5499 32.3372 19.5588C32.768 19.0279 33.3098 18.5294 33.9034 18.1996C35.3389 17.4019 36.8911 18.0386 37.38 19.6094C37.6089 20.3446 37.7405 21.1342 37.7658 21.9041C37.8467 24.3657 37.5579 26.7986 37.035 29.2047C36.9813 29.4521 36.9849 29.7118 36.9518 30.0775C37.142 29.9121 37.2762 29.811 37.3923 29.6922C38.7919 28.2599 40.1942 26.8302 41.5841 25.3885C42.2265 24.7222 42.9495 24.3218 43.9175 24.4265C44.3345 24.4716 44.6236 24.6221 44.816 24.9831C45.2559 25.8087 45.141 26.6942 45.0679 27.5647C44.977 28.6476 44.837 29.7263 44.7112 30.8856C44.585 31.4819 44.4625 31.9985 44.3469 32.5167C44.0472 33.8596 43.7546 35.2041 43.4512 36.5462C43.2283 37.5321 42.9929 38.5152 42.7631 39.4995C41.8748 40.7067 40.907 41.8361 39.6443 42.6751C39.5543 42.7349 39.4481 42.7703 39.3132 42.7818C39.7296 41.2414 40.249 39.7525 40.6196 38.2274C41.1964 35.8533 41.6768 33.4555 42.1851 31.065C42.2517 30.7516 42.2947 30.4155 42.256 30.1014C42.1843 29.519 41.7545 29.3654 41.3276 29.7602C40.946 30.1131 40.5874 30.4938 40.2445 30.8849C39.0563 32.2403 37.8848 33.6104 36.6931 34.9626C36.492 35.1907 36.2417 35.3907 35.9805 35.548C34.8889 36.2052 33.6638 35.6512 33.508 34.4273C33.4632 34.0755 33.4543 33.7023 33.5199 33.3561C33.8368 31.6834 34.1767 30.0148 34.5236 28.3479C34.9911 26.1016 35.3305 23.8421 35.2415 21.5392C35.2338 21.3396 35.1316 21.0379 34.9906 20.9779C34.8403 20.914 34.5271 21.0205 34.3984 21.1584C34.024 21.5596 33.6385 21.9768 33.3784 22.4537C32.3511 24.3371 31.3381 26.2299 30.3856 28.1518C29.9186 29.0939 29.5121 30.0835 29.2232 31.0931C28.3108 34.2812 27.3992 37.4697 26.1411 40.5409C25.2855 42.6295 24.3321 44.6782 23.4167 46.7421C23.2282 47.1672 23.0143 47.581 22.8122 48C21.7793 47.9674 20.8096 47.7413 19.7772 47.6976C19.6247 47.6912 19.312 47.629 19.1532 47.52C19.8056 46.1389 20.5739 45.0005 21.2246 43.6758C23.075 39.9086 24.85 36.1104 25.8464 32.0051C26.0728 31.072 26.2803 30.1342 26.5045 29.1641C26.3313 29.152 26.2641 29.1302 26.2078 29.1465C26.0364 29.1962 25.8665 29.2538 25.7009 29.3203C22.3112 30.6811 19.0203 32.2387 15.9429 34.2213C14.9291 34.8744 13.845 35.2234 12.615 35.1018C11.5927 35.0008 11.0867 34.583 10.8875 33.5708C10.6837 32.5352 10.8024 31.5212 11.1408 30.542C11.72 28.8662 12.3487 27.2075 12.945 25.5375C13.054 25.232 13.1074 24.9067 13.1865 24.5905C13.144 24.5616 13.1015 24.5327 13.059 24.5038C12.4183 24.8453 11.776 25.1838 11.1373 25.5288C9.73738 26.285 8.30943 26.932 6.65493 26.7865C4.73621 26.6178 3.13666 25.5011 2.86218 23.5454C2.7155 22.5003 2.78127 21.4716 3.03564 20.4581C3.30037 19.4033 3.61139 18.3602 3.92413 17.2874C4.05196 16.9835 4.15783 16.7041 4.2888 16.402C4.55323 15.8723 4.79253 15.3655 5.05234 14.8314C5.8023 13.5058 6.68747 12.3286 7.76129 11.292C9.52521 9.58934 12.1684 9.1128 14.2293 10.7456C14.4544 10.9239 14.6752 11.1075 14.9691 11.3465C14.9914 11.109 15.0247 10.9398 15.0203 10.7716C14.99 9.60426 14.9578 8.4369 14.9136 7.27002C14.8922 6.70352 14.8696 6.13479 14.7996 5.57306C14.7381 5.07987 14.6096 4.59504 14.5161 4.0657C14.5052 3.89806 14.508 3.76507 14.4695 3.64541C14.1959 2.79531 13.9139 1.94793 13.6345 1.0997C13.8929 0.947995 14.135 0.748466 14.4128 0.653933C15.1267 0.411048 15.8564 0.214734 16.6203 0Z" fill="white"/>
</g>
</svg>
